<?xml version="1.0" encoding="UTF-8"?>
<svg version="1.1" xmlns="http://www.w3.org/2000/svg" width="512" height="512">
<path d="M0 0 C0.90040512 -0.00705963 1.80081024 -0.01411926 2.72850037 -0.02139282 C40.2726953 -0.24896892 40.2726953 -0.24896892 57.20703125 3.203125 C58.233125 3.40711914 59.25921875 3.61111328 60.31640625 3.82128906 C101.77998409 12.25893064 140.21990425 29.58954256 173.20703125 56.203125 C173.74569824 56.63737793 174.28436523 57.07163086 174.83935547 57.51904297 C178.70676402 60.66095368 182.47686129 63.89994336 186.20703125 67.203125 C187.00270508 67.89462646 187.00270508 67.89462646 187.81445312 68.60009766 C198.25039475 77.78104385 206.84928345 89.95790222 208.20703125 104.203125 C208.33722656 105.42 208.46742188 106.636875 208.6015625 107.890625 C212.73706885 153.25312752 189.58479364 201.51085258 164.69140625 237.9296875 C164.31638977 238.48004669 163.94137329 239.03040588 163.55499268 239.59744263 C161.73640422 242.25555017 159.89224462 244.88978482 158.00878906 247.50244141 C157.35233398 248.44007324 156.69587891 249.37770508 156.01953125 250.34375 C155.13201172 251.57399902 155.13201172 251.57399902 154.2265625 252.82910156 C152.92340037 255.19317468 152.92340037 255.19317468 153.87915039 257.77197266 C155.05328861 259.92164509 156.24268186 261.95137757 157.640625 263.9609375 C158.11894775 264.65872314 158.59727051 265.35650879 159.09008789 266.07543945 C159.6030542 266.81882568 160.11602051 267.56221191 160.64453125 268.328125 C166.98554826 277.69477582 172.72486701 287.31284518 178.20703125 297.203125 C178.66464844 298.02119629 179.12226563 298.83926758 179.59375 299.68212891 C197.9910349 332.7856468 215.31798774 374.57569854 207.20703125 413.203125 C201.33045644 433.39556626 186.37050269 446.68478068 169.98242188 458.87646484 C168.1936024 460.2131597 166.42638693 461.57504942 164.66015625 462.94140625 C155.03493994 470.2981932 144.83681905 476.41170761 134.20703125 482.203125 C133.54654785 482.5650293 132.88606445 482.92693359 132.20556641 483.29980469 C99.59094858 500.95444112 61.63604359 512.21073455 24.4140625 512.40625 C23.51365738 512.41330963 22.61325226 512.42036926 21.68556213 512.42764282 C-15.8586328 512.65521892 -15.8586328 512.65521892 -32.79296875 509.203125 C-34.33210938 508.89713379 -34.33210938 508.89713379 -35.90234375 508.58496094 C-77.36592159 500.14731936 -115.80584175 482.81670744 -148.79296875 456.203125 C-149.33163574 455.76887207 -149.87030273 455.33461914 -150.42529297 454.88720703 C-154.29270152 451.74529632 -158.06279879 448.50630664 -161.79296875 445.203125 C-162.58864258 444.51162354 -162.58864258 444.51162354 -163.40039062 443.80615234 C-173.83633225 434.62520615 -182.43522095 422.44834778 -183.79296875 408.203125 C-183.92316406 406.98625 -184.05335938 405.769375 -184.1875 404.515625 C-188.32300635 359.15312248 -165.17073114 310.89539742 -140.27734375 274.4765625 C-139.71481903 273.65102371 -139.71481903 273.65102371 -139.14093018 272.80880737 C-137.32234172 270.15069983 -135.47818212 267.51646518 -133.59472656 264.90380859 C-132.93827148 263.96617676 -132.28181641 263.02854492 -131.60546875 262.0625 C-131.01378906 261.24233398 -130.42210937 260.42216797 -129.8125 259.57714844 C-128.50933787 257.21307532 -128.50933787 257.21307532 -129.46508789 254.63427734 C-130.63922611 252.48460491 -131.82861936 250.45487243 -133.2265625 248.4453125 C-133.70488525 247.74752686 -134.18320801 247.04974121 -134.67602539 246.33081055 C-135.1889917 245.58742432 -135.70195801 244.84403809 -136.23046875 244.078125 C-142.57148576 234.71147418 -148.31080451 225.09340482 -153.79296875 215.203125 C-154.25058594 214.38505371 -154.70820313 213.56698242 -155.1796875 212.72412109 C-173.5769724 179.6206032 -190.90392524 137.83055146 -182.79296875 99.203125 C-176.91639394 79.01068374 -161.95644019 65.72146932 -145.56835938 53.52978516 C-143.7795399 52.1930903 -142.01232443 50.83120058 -140.24609375 49.46484375 C-130.62087744 42.1080568 -120.42275655 35.99454239 -109.79296875 30.203125 C-109.13248535 29.8412207 -108.47200195 29.47931641 -107.79150391 29.10644531 C-75.17688608 11.45180888 -37.22198109 0.19551545 0 0 Z " fill="#60A1F8" transform="translate(243.79296875,-0.203125)"/>
<path d="M0 0 C0.96679688 0.65484375 1.93359375 1.3096875 2.9296875 1.984375 C28.16710136 19.94554746 43.73948011 45.64818456 49 76 C49.1340625 76.72832031 49.268125 77.45664063 49.40625 78.20703125 C53.35783371 103.39837742 45.66378536 131.17024816 31.125 151.75 C24.39832673 160.55327884 16.73796531 168.34656432 8.9375 176.1875 C7.80368896 177.32844116 7.80368896 177.32844116 6.64697266 178.49243164 C1.92590297 183.19963697 -2.93245588 187.66972167 -8 192 C-9.09413699 192.95007535 -10.18790588 193.90057482 -11.28125 194.8515625 C-25.03948253 206.73425039 -39.08199721 218.00613816 -53.92041016 228.51708984 C-55.79723067 229.85540961 -57.65777764 231.21228462 -59.51171875 232.58203125 C-100.10965627 262.45756582 -157.48287176 294.59810096 -209.96875 286.8046875 C-215.96830545 285.73497709 -221.45632758 283.47089399 -227 281 C-227.83402344 280.71382813 -228.66804688 280.42765625 -229.52734375 280.1328125 C-240.63087596 275.04588621 -246.6990016 262.74648062 -251 252 C-252.12658254 248.95822714 -252.69258494 246.22533831 -253 243 C-253.13019531 241.783125 -253.26039063 240.56625 -253.39453125 239.3125 C-257.84455683 190.50002582 -231.16713118 141.79399412 -205.3125 102.4375 C-204.28721191 100.86524658 -204.28721191 100.86524658 -203.24121094 99.26123047 C-202.60086914 98.30748535 -201.96052734 97.35374023 -201.30078125 96.37109375 C-200.73528564 95.52474365 -200.16979004 94.67839355 -199.5871582 93.80639648 C-199.063396 93.21028564 -198.53963379 92.6141748 -198 92 C-197.01 92 -196.02 92 -195 92 C-193.36338478 93.83813874 -191.93677925 95.63878913 -190.5 97.625 C-189.60364602 98.82610439 -188.70648286 100.02660526 -187.80859375 101.2265625 C-187.34565918 101.85079102 -186.88272461 102.47501953 -186.40576172 103.11816406 C-179.43119597 112.45473107 -172.045834 121.45437079 -164.45751953 130.29541016 C-162.87872296 132.14183522 -161.31192551 133.99803959 -159.74609375 135.85546875 C-158.66420724 137.1329351 -157.58217923 138.41028162 -156.5 139.6875 C-155.9954126 140.28820312 -155.4908252 140.88890625 -154.97094727 141.5078125 C-152.76407732 144.10051981 -150.85230423 146.09846385 -148 148 C-148.43570313 147.34257812 -148.87140625 146.68515625 -149.3203125 146.0078125 C-154.88239548 137.1229267 -158.1501827 128.04189178 -161 118 C-161.34289062 116.79730469 -161.68578125 115.59460938 -162.0390625 114.35546875 C-168.71246043 86.57043346 -162.07282443 59.01009718 -148.35546875 34.6171875 C-142.01227165 24.45944195 -133.4734309 16.22059377 -125 7.875 C-123.83156111 6.71661987 -122.66358912 5.55776857 -121.49609375 4.3984375 C-118.66940311 1.59351033 -115.83651545 -1.20501012 -113 -4 C-112.01 -3.505 -112.01 -3.505 -111 -3 C-111 -2.67 -111 -2.34 -111 -2 C-109.99324219 -2.51949219 -108.98648438 -3.03898438 -107.94921875 -3.57421875 C-74.44079309 -20.36873519 -31.80846378 -22.07117895 0 0 Z " fill="#43209A" transform="translate(313,165)"/>
<path d="M0 0 C5.66824133 4.25118099 9.67856713 9.42337915 14 15 C16.3139315 17.88928744 18.66169288 20.66628788 21.30078125 23.26953125 C24.19006839 26.19226889 26.85714165 29.23128293 29.5 32.375 C29.98122314 32.94645752 30.46244629 33.51791504 30.95825195 34.10668945 C40 44.91897868 40 44.91897868 40 48 C40.66 48 41.32 48 42 48 C42.33 49.32 42.66 50.64 43 52 C43.66 52 44.32 52 45 52 C45 52.99 45 53.98 45 55 C45.66 55 46.32 55 47 55 C47 55.66 47 56.32 47 57 C47.66 57 48.32 57 49 57 C49.92729018 58.31960526 50.83880226 59.65147377 51.69921875 61.015625 C53.18272976 63.27875891 54.80501703 65.40418567 56.4375 67.5625 C85.92333619 108.04398197 116.51317039 164.43917055 108.7890625 216.2421875 C104.13948668 238.38521688 88.22759388 252.69001664 70.77539062 265.67333984 C68.98657115 267.0100347 67.21935568 268.37192442 65.453125 269.73828125 C55.82790869 277.0950682 45.6297878 283.20858261 35 289 C34.3395166 289.3619043 33.6790332 289.72380859 32.99853516 290.09667969 C0.38391733 307.75131612 -37.57098766 319.00760955 -74.79296875 319.203125 C-75.69337387 319.21018463 -76.59377899 319.21724426 -77.52146912 319.22451782 C-115.06566405 319.45209392 -115.06566405 319.45209392 -132 316 C-133.53914063 315.69400879 -133.53914063 315.69400879 -135.109375 315.38183594 C-182.62125894 305.71339273 -223.21191451 284.1538742 -260 253 C-259.505 252.01 -259.505 252.01 -259 251 C-258.23816406 251.33773437 -257.47632813 251.67546875 -256.69140625 252.0234375 C-226.74659817 264.95839829 -194.38454842 257.12929653 -165.1875 245.58203125 C-154.55154693 241.22527728 -144.23524526 236.21985481 -134 231 C-133.1239209 230.55430664 -132.2478418 230.10861328 -131.34521484 229.64941406 C-104.5060075 215.83213475 -79.9302342 197.64313017 -56.73242188 178.42822266 C-54.25689123 176.3873751 -51.75001785 174.38572864 -49.25 172.375 C-44.33298205 168.3526575 -39.6661421 164.10160928 -35.01953125 159.7734375 C-32.7847966 157.69827286 -30.49918617 155.69274172 -28.19140625 153.69921875 C-2.5099188 131.29447126 15.97901661 105.84768166 19 71 C20.17014023 48.02043761 14.97277304 23.85919771 1.75390625 4.6328125 C0 2 0 2 0 0 Z " fill="#BD79ED" transform="translate(343,193)"/>
<path d="M0 0 C4.42800718 4.17830752 8.05982082 8.79264646 11.75 13.625 C13.00164265 15.24813773 14.25424428 16.87053644 15.5078125 18.4921875 C16.11012695 19.27174805 16.71244141 20.05130859 17.33300781 20.85449219 C24.56769768 30.16592373 32.27330191 39.09642219 40 48 C40.45004395 48.52142578 40.90008789 49.04285156 41.36376953 49.58007812 C42.58982162 50.99684943 43.82586926 52.40495282 45.0625 53.8125 C45.75472656 54.60269531 46.44695312 55.39289063 47.16015625 56.20703125 C48.97126073 58.23244043 48.97126073 58.23244043 52 59 C53.2890625 60.49609375 53.2890625 60.49609375 54.625 62.4375 C58.98086807 68.4745803 63.76898006 74.84598671 70 79 C70 79.66 70 80.32 70 81 C70.57234375 81.26554687 71.1446875 81.53109375 71.734375 81.8046875 C74.10910265 83.05756105 76.10466889 84.51225109 78.25 86.125 C101.68195043 102.61669531 131.03186236 108.79751477 159.30078125 104.27734375 C174.15753558 101.38523302 190.34337501 95.81943953 202 86 C202.66 86.33 203.32 86.66 204 87 C199.20501148 91.92984757 194.220358 96.52662006 189 101 C187.98018849 101.8837913 186.96068012 102.76793245 185.94140625 103.65234375 C172.12012527 115.61434053 157.9989815 126.94877601 143.07958984 137.51708984 C141.20276933 138.85540961 139.34222236 140.21228462 137.48828125 141.58203125 C96.89034373 171.45756582 39.51712824 203.59810096 -12.96875 195.8046875 C-18.96830545 194.73497709 -24.45632758 192.47089399 -30 190 C-30.83402344 189.71382812 -31.66804688 189.42765625 -32.52734375 189.1328125 C-43.63087596 184.04588621 -49.6990016 171.74648062 -54 161 C-55.12658254 157.95822714 -55.69258494 155.22533831 -56 152 C-56.13019531 150.783125 -56.26039062 149.56625 -56.39453125 148.3125 C-61.2061247 95.53397619 -30.34286971 42.42027058 -1 1 C-0.67 0.67 -0.34 0.34 0 0 Z " fill="#7C25B1" transform="translate(116,256)"/>
<path d="M0 0 C8.10636763 7.15454364 14.41131675 20.53618959 15.43359375 31.26171875 C15.56378906 32.47859375 15.69398438 33.69546875 15.828125 34.94921875 C20.27815058 83.76169293 -6.39927507 132.46772463 -32.25390625 171.82421875 C-32.93743164 172.8723877 -33.62095703 173.92055664 -34.32519531 175.00048828 C-34.96553711 175.9542334 -35.60587891 176.90797852 -36.265625 177.890625 C-37.11386841 179.16015015 -37.11386841 179.16015015 -37.97924805 180.45532227 C-38.50301025 181.05143311 -39.02677246 181.64754395 -39.56640625 182.26171875 C-40.55640625 182.26171875 -41.54640625 182.26171875 -42.56640625 182.26171875 C-43.55640625 179.78671875 -43.55640625 179.78671875 -44.56640625 177.26171875 C-45.22640625 177.26171875 -45.88640625 177.26171875 -46.56640625 177.26171875 C-46.56640625 176.60171875 -46.56640625 175.94171875 -46.56640625 175.26171875 C-47.22640625 175.26171875 -47.88640625 175.26171875 -48.56640625 175.26171875 C-48.56640625 174.27171875 -48.56640625 173.28171875 -48.56640625 172.26171875 C-49.22640625 172.26171875 -49.88640625 172.26171875 -50.56640625 172.26171875 C-50.89640625 170.94171875 -51.22640625 169.62171875 -51.56640625 168.26171875 C-52.22640625 168.26171875 -52.88640625 168.26171875 -53.56640625 168.26171875 C-54.776453 166.74840214 -55.90764456 165.17188911 -57.00390625 163.57421875 C-60.73909522 158.27754194 -64.77745063 153.36556533 -69.06030273 148.50317383 C-72.56640625 144.46901654 -72.56640625 144.46901654 -72.56640625 142.26171875 C-73.55640625 141.93171875 -74.54640625 141.60171875 -75.56640625 141.26171875 C-77.07421875 139.80078125 -77.07421875 139.80078125 -78.69140625 137.88671875 C-79.60019531 136.82130859 -79.60019531 136.82130859 -80.52734375 135.734375 C-82.00562762 133.94174342 -83.46705099 132.13516479 -84.91796875 130.3203125 C-85.70945312 129.33160156 -86.5009375 128.34289062 -87.31640625 127.32421875 C-88.42242187 125.91849609 -88.42242187 125.91849609 -89.55078125 124.484375 C-91.4460383 122.02944147 -91.4460383 122.02944147 -94.56640625 121.26171875 C-96.22265625 119.36328125 -96.22265625 119.36328125 -98.06640625 116.88671875 C-115.33797455 94.88192574 -138.37554828 82.44357175 -165.8203125 77.69921875 C-189.4516531 74.93935415 -213.56390058 78.79158665 -233.9296875 91.4765625 C-234.46980469 91.73566406 -235.00992188 91.99476563 -235.56640625 92.26171875 C-236.22640625 91.93171875 -236.88640625 91.60171875 -237.56640625 91.26171875 C-230.38515742 83.1530486 -223.11172434 75.96202498 -214.56640625 69.26171875 C-212.72996187 67.70287643 -210.89676987 66.14019652 -209.06640625 64.57421875 C-160.85097608 24.45650826 -63.65862391 -43.11733278 0 0 Z " fill="#3E7EE9" transform="translate(436.56640625,72.73828125)"/>
<path d="M0 0 C3.7583357 1.38393589 6.97811807 3.13765325 10.375 5.25 C33.90929097 19.12771458 63.46404602 23.41867511 90.04272461 16.77026367 C102.63043108 13.31820066 115.93138532 8.48171346 126 0 C126.99 0.495 126.99 0.495 128 1 C123.20501148 5.92984757 118.220358 10.52662006 113 15 C111.98018849 15.8837913 110.96068012 16.76793245 109.94140625 17.65234375 C95.47009273 30.17692854 80.64020953 41.96065518 65 53 C58.49267279 49.64023345 52.77647094 45.75446984 47.0625 41.1875 C45.87865723 40.25284912 45.87865723 40.25284912 44.67089844 39.29931641 C43.1228803 38.07563581 41.57704238 36.84919067 40.03369141 35.61962891 C38.39672844 34.31595396 36.75227402 33.02168854 35.10546875 31.73046875 C25.3031054 24.00887241 15.88165262 15.80821299 6.6875 7.375 C6.13022217 6.86614258 5.57294434 6.35728516 4.9987793 5.83300781 C1.12192336 2.24384671 1.12192336 2.24384671 0 0 Z " fill="#991DC5" transform="translate(192,342)"/>
<path d="M0 0 C0.66 0.33 1.32 0.66 2 1 C0.48328036 5.55015893 -3.16891053 7.50057264 -7 10 C-7.66 9.67 -8.32 9.34 -9 9 C-6.03 6.03 -3.06 3.06 0 0 Z " fill="#2149B7" transform="translate(200,161)"/>
</svg>
